<?xml version="1.0" encoding="utf-8"?>
<!-- Generator: Adobe Illustrator 24.0.1, SVG Export Plug-In . SVG Version: 6.00 Build 0)  -->
<svg version="1.1" id="レイヤー_1" xmlns="http://www.w3.org/2000/svg" xmlns:xlink="http://www.w3.org/1999/xlink" x="0px"
	 y="0px" viewBox="0 0 512 512" style="enable-background:new 0 0 512 512;" xml:space="preserve">
<style type="text/css">
	.st0{opacity:0.4;fill:#D6D8E5;enable-background:new    ;}
	.st1{fill:#B1B4C4;}
	.st2{fill:#616E84;}
	.st3{fill:#757B89;}
	.st4{fill:#20232D;}
	.st5{fill:#FFFFFF;}
	.st6{opacity:0.5;fill:url(#SVGID_1_);enable-background:new    ;}
	.st7{fill:#2B303F;}
	.st8{opacity:0.1;fill:#FFFFFF;enable-background:new    ;}
	.st9{fill:#E9EAF2;}
	.st10{fill:#DADCE5;}
	.st11{fill:#EDEEF7;}
	.st12{fill:#F8F9FF;}
	.st13{fill:#FF5757;}
	.st14{fill:#FFCEA9;}
	.st15{fill:#EDEDED;}
	.st16{fill:#2B2A30;}
	.st17{fill:#BF4B4B;}
	.st18{fill:#E26161;}
	.st19{fill:#F4F4F4;}
	.st20{opacity:0.5;fill:url(#SVGID_2_);enable-background:new    ;}
	.st21{opacity:0.6;}
</style>
<g>
	<g id="Mobile_1_">
		<path class="st0" d="M168.4,405.2L59.2,342.2c-9.3-5.3-8.1-14.7,2.6-20.8L325.6,169c10.7-6.1,26.8-6.8,36.1-1.5l109.2,63.1
			c9.3,5.3,8.1,14.7-2.6,20.8L204.5,403.7C193.9,409.9,177.7,410.6,168.4,405.2z"/>
		<path class="st1" d="M182.3,396.9L73.1,333.9c-9.3-5.3-8.1-14.7,2.6-20.8l263.8-152.3c10.7-6.1,26.8-6.8,36.1-1.5l109.2,63.1
			c9.3,5.3,8.1,14.7-2.6,20.8L218.4,395.4C207.7,401.6,191.5,402.3,182.3,396.9z"/>
		<polygon class="st1" points="66.8,324.7 66.8,314.7 78.6,319.1 		"/>
		<polygon class="st1" points="491,231 491,221.3 481.6,227.4 		"/>
		<path class="st2" d="M182.3,388.4L73.1,325.4c-9.3-5.3-8.1-14.7,2.6-20.8l263.8-152.3c10.7-6.1,26.8-6.8,36.1-1.5l109.2,63.1
			c9.3,5.3,8.1,14.7-2.6,20.8L218.4,386.9C207.7,393.1,191.5,393.8,182.3,388.4z"/>
		<ellipse transform="matrix(0.866 -0.5 0.5 0.866 -156.8476 87.7098)" class="st3" cx="85.2" cy="336.5" rx="1.2" ry="2"/>
		<ellipse transform="matrix(0.866 -0.5 0.5 0.866 -157.6622 90.743)" class="st3" cx="90.5" cy="339.6" rx="1.2" ry="2"/>
		<ellipse transform="matrix(0.866 -0.5 0.5 0.866 -158.4744 93.7827)" class="st3" cx="95.8" cy="342.6" rx="1.2" ry="2"/>
		<ellipse transform="matrix(0.866 -0.5 0.5 0.866 -159.289 96.8158)" class="st3" cx="101" cy="345.6" rx="1.2" ry="2"/>
		<ellipse transform="matrix(0.867 -0.4983 0.4983 0.867 -166.2993 122.5928)" class="st3" cx="146.5" cy="372.8" rx="1.2" ry="2"/>
		<ellipse transform="matrix(0.866 -0.5 0.5 0.866 -167.085 125.9073)" class="st3" cx="151.4" cy="374.7" rx="1.2" ry="2"/>
		<ellipse transform="matrix(0.866 -0.5 0.5 0.866 -167.8984 128.9425)" class="st3" cx="156.7" cy="377.8" rx="1.2" ry="2"/>
		<ellipse transform="matrix(0.866 -0.5 0.5 0.866 -168.713 131.9757)" class="st3" cx="161.9" cy="380.8" rx="1.2" ry="2"/>
		<path class="st3" d="M130.8,365l-14.4-8.3c-1-0.7-1.6-1.9-1.7-3.2l0,0c0-1.2,0.7-1.8,1.7-1.3l14.4,8.3c1,0.7,1.6,1.9,1.7,3.2l0,0
			C132.5,365,131.7,365.6,130.8,365z"/>
		<path class="st3" d="M458,254.9l-13.4,7.8c-0.9,0.5-1.5,0-1.5-1.2l0,0c0-1.2,0.6-2.3,1.5-2.9l13.4-7.8c0.9-0.5,1.5,0,1.5,1.2l0,0
			C459.5,253.2,458.9,254.3,458,254.9z"/>
		<path class="st3" d="M437.4,266.8l-13.4,7.8c-0.9,0.5-1.5,0-1.5-1.2l0,0c0-1.2,0.6-2.3,1.5-2.9l13.4-7.8c0.9-0.5,1.5,0,1.5,1.2
			l0,0C438.9,265,438.3,266.1,437.4,266.8z"/>
		<path class="st4" d="M182.3,386.9L73.1,323.8c-9.3-5.3-8.1-14.7,2.6-20.8l263.8-152.3c10.7-6.1,26.8-6.8,36.1-1.5l109.2,63.1
			c9.3,5.3,8.1,14.7-2.6,20.8L218.4,385.4C207.7,391.5,191.5,392.2,182.3,386.9z"/>
		<path class="st5" d="M473,214.8l-42.6-24.6l-0.1,0.1c-5,2.9-13.2,2.9-18.2,0c-5-2.9-5-7.6,0-10.5l0.1-0.1L369.5,155
			c-6.5-3.7-17-3.7-23.5,0L89.2,303.3c-6.5,3.7-6.5,9.8,0,13.5l103.5,59.8c6.5,3.7,17,3.7,23.5,0L473,228.3
			C479.5,224.6,479.5,218.5,473,214.8z"/>
		
			<linearGradient id="SVGID_1_" gradientUnits="userSpaceOnUse" x1="281.0953" y1="134.5706" x2="281.0953" y2="361.8101" gradientTransform="matrix(1 0 0 -1 0 514)">
			<stop  offset="0.21" style="stop-color:#FFFFFF;stop-opacity:0"/>
			<stop  offset="1" style="stop-color:#FFFFFF;stop-opacity:0.2"/>
		</linearGradient>
		<path class="st6" d="M473,228.3L216.1,376.6c-5.9,3.4-15,3.7-21.5,1c-0.7-0.3-1.3-0.6-2-1L89.2,316.9c-1.4-0.8-2.7-1.8-3.6-3.2
			c-2.4-3.5-1.2-7.6,3.6-10.4L346.1,155c6.5-3.7,17-3.7,23.5,0l42.6,24.6l-0.1,0.1c-5,2.9-5,7.6,0,10.5c5,2.9,13.2,2.9,18.2,0
			l0.1-0.1l42.6,24.6C479.5,218.5,479.5,224.6,473,228.3z"/>
		<ellipse class="st7" cx="418.4" cy="186.6" rx="4.9" ry="2.8"/>
		<path class="st8" d="M416.9,187.4c-0.5-0.1-0.7-0.6-0.6-1.1c0.1-0.3,0.3-0.5,0.6-0.6c0.9-0.5,2-0.5,2.9,0c0.5,0.1,0.7,0.6,0.6,1.1
			c-0.1,0.3-0.3,0.5-0.6,0.6C418.9,187.8,417.8,187.8,416.9,187.4z"/>
	</g>
	<g>
		<path class="st9" d="M348.4,279L257,226.3c-5.3-3.1-4.6-8.4,1.5-12l61.5-35.5c6.1-3.5,15.4-3.9,20.7-0.9l91.4,52.8
			c5.3,3.1,4.6,8.4-1.5,12l-61.5,35.5C362.9,281.7,353.7,282.1,348.4,279z"/>
		<polygon class="st10" points="351.3,217.8 318.4,222.8 323.7,211.5 272.1,219.5 286.5,227.8 309.8,241.2 333.9,255.2 		"/>
		<ellipse class="st10" cx="393.6" cy="234.1" rx="16.3" ry="9.4"/>
	</g>
	<polygon class="st9" points="441.9,206.9 440.1,205.9 443.2,204.1 445,205.1 	"/>
	<polygon class="st9" points="444.4,208.4 442.6,207.3 446.9,204.8 448.7,205.9 	"/>
	<polygon class="st9" points="446.9,209.8 445,208.7 451.2,205.1 453.1,206.2 	"/>
	<polygon class="st9" points="449.3,211.2 447.5,210.2 456.2,205.1 458,206.2 	"/>
	<polygon class="st9" points="457.4,215.9 454.5,214.2 460.3,210.9 463.2,212.5 	"/>
	<polygon class="st9" points="461.2,218.1 458.4,216.4 464.1,213.1 467,214.8 	"/>
	<polygon class="st9" points="465.1,220.3 462.2,218.6 468,215.3 470.9,217 	"/>
	<g>
		<path class="st11" d="M92.6,134.2l-46-26.5c-1.2-0.7-2.4-0.8-3.2-0.4l0,0c-0.1,0.1-0.2,0.1-0.3,0.2l-4.8,2.7l3.5,4.9v34.7
			c0,3.1,2.2,6.9,4.9,8.5l18,10.4l2.2,5.7l-2.3,10l5.1-2.8l5-7.1l15.6,9l0.5,4.7l5-2.8c1-0.4,1.7-1.6,1.7-3.3v-39.2
			C97.5,139.6,95.3,135.8,92.6,134.2z"/>
		<path class="st12" d="M87.5,137l-46-26.5c-2.7-1.6-4.9-0.3-4.9,2.8v39.2c0,3.1,2.2,6.9,4.9,8.5l18,10.4l5,12.8l5-7.1l18,10.4
			c2.7,1.6,4.9,0.3,4.9-2.8v-39.2C92.4,142.4,90.3,138.6,87.5,137z"/>
		<path class="st13" d="M78.3,151c-0.4-5.4-3.6-11-7.6-13.3c-2.6-1.5-5.1-1.3-6.4,0.6c-1.4-3.5-3.7-6.4-6.3-7.9
			c-4-2.3-7.2-0.4-7.6,4.6c-0.1,1.2,0,2.4,0.2,3.5c0.7,3.4,2,6.7,3.9,9.7l9.7,15.8l9.9-4.5c2-0.9,3.3-2.7,3.9-5.2
			C78.3,153.2,78.4,152.1,78.3,151z"/>
	</g>
	<g>
		<g id="Men_2">
			<ellipse class="st0" cx="67.1" cy="396" rx="34.6" ry="20"/>
			<path id="_Контур_6" class="st14" d="M41.8,246.5c-0.4,3.4-4.4,17.9-3.5,22.8c0.9,5,14.5,13.3,14.5,13.3l1.9-8.5l-7.6-7.4
				l2-14.1L41.8,246.5z"/>
			<path id="_Контур_7" class="st15" d="M52.3,232.2c-2.8-1.3-6-0.3-7.6,2.3c-2,3.3-4.1,14.8-4.3,16.7c0,0,2.8,3.9,7.1,3.2
				L52.3,232.2z"/>
			<path class="st16" d="M68,393.8c3,0.8,6.2,0.4,8.9-1.1c2.1,0.1,13.7-4.9,15.3-0.7c1.4,3.6-3.6,7-6.3,7.7
				c-5.8,1.4-10.2,4.3-12.5,4.8c-1.8,0.4-4,0.6-5.4-0.8C66.2,402.1,66.4,395.9,68,393.8z"/>
			<path class="st17" d="M73.3,403.5c2.3-0.5,6.7-3.4,12.5-4.8c2.2-0.5,6.1-3,6.5-5.9c0.5,3.4-4,6.3-6.5,7
				c-5.8,1.4-10.2,4.3-12.5,4.8c-1.8,0.4-4,0.6-5.4-0.8c-0.4-0.4-0.6-0.9-0.8-1.4C68.9,403.7,71.2,404.1,73.3,403.5z"/>
			<path class="st16" d="M49.2,385.3c3,0.8,6.2,0.4,8.9-1.1c2.1,0.1,13.7-4.9,15.3-0.7c1.4,3.6-3.6,7-6.3,7.7
				c-5.8,1.4-10.2,4.3-12.5,4.8c-1.8,0.4-4,0.6-5.4-0.8C47.4,393.6,47.5,387.5,49.2,385.3z"/>
			<path class="st17" d="M54.5,395c2.3-0.5,6.7-3.4,12.5-4.8c2.2-0.5,6.1-3,6.5-5.9c0.5,3.4-4,6.3-6.5,7c-5.8,1.4-10.2,4.3-12.5,4.8
				c-1.8,0.4-4,0.6-5.4-0.8c-0.4-0.4-0.6-0.9-0.8-1.4C50.1,395.3,52.4,395.7,54.5,395z"/>
			<path id="_Контур_8" class="st18" d="M49,353.9c0.5-4.3,1.4-8.6,2.7-12.7c0,0-0.8-11-1.2-21.3c-0.5-11.8-4.5-22.1-1.3-31.6
				l36.4,8.1c0,0-2.2,47-2.7,52.7c-0.3,4.4-0.8,8.8-1.6,13.2c-1.7,9.1-4.4,30.8-4.4,30.8c-3.8,2.2-8.9,1-8.9,1s0.3-27.4,0.5-34
				c0.3-8,0.5-7.4,0.5-7.4l-1.2-20l-0.8-9.9c0,0-1,7.3-1.7,13.8c-0.6,5.7-2,10.8-3.5,21.4c-1.3,9.2-3.5,27.6-3.5,27.6
				c-3.8,2.2-9.1,0.4-9.1,0.4S47.9,361.8,49,353.9z"/>
			<path id="_Контур_9" class="st14" d="M54.3,232.4c2.8,0.1,4.8,0.9,5.2,0c0.3-1.4,0.5-2.9,0.6-4.3c-0.3-0.8-0.6-1.7-0.6-1.7
				c-3.5-2.1-4.6-5.9-5-10.3c-0.8-7.5,3.3-14,10.7-14.8c7-0.7,12.2,4.2,13.6,11c0.7,3.4,2.2,9.7,0.2,15.2c-1.1,3.1-2.6,5.5-4,6
				c-1.4,0-2.8-0.2-4.2-0.4l0,0c0,0-0.4,2.1-0.6,3.4s-0.2,2,2.5,3.7s-4,5-8.4,4.7c-4.4-0.3-9.3-3-10.6-5.8
				C52.2,236,52.4,232.3,54.3,232.4z"/>
			<path id="_Контур_10" class="st19" d="M58.3,232.8c-0.8,1.9,1.2,4.3,6.4,5.9c5.2,1.6,5.7-0.5,5.7-0.5s7.6,3.5,10.1,5.2
				c3.1,2.2,4.5,8.5,4.9,19.2c0.5,12.3,0.5,30.6,0.1,33.8c0,0-5.8,5.8-13.3,5.2s-20-7.2-23.1-12.3c0.1-10.8,1.3-12.6-0.4-18.8
				c-4-14.3-6.1-20.1-4.2-29.6c1.6-7.8,3.9-8.8,7-8.7C53.8,232.2,56,232.5,58.3,232.8z"/>
			<path id="_Контур_11" class="st14" d="M97.1,272.8c-6.1,1.5-7.6-2.3-8.4-5.5c-1.9-7.8-3-14.7-4.4-19.1c-1.7-5.2-3.5-6-6-7
				c-3-1.2-5.5,1.3-4.5,7.9c1.2,7.8,2.7,13.3,5.6,22.5c0.8,2.4,2.5,6.7,5,8.8c3.2,2.6,7.9,2.5,15.1,0.7c3.1-0.8,6.4-2.6,12.2-5.3
				c1.6-0.7,2.8-1.2,5.8-2.6c3-1.4,5.6-3.4,7.7-6c1.6-2.3,1.3-3.7,1-4.2s-0.6-0.1-1.5,0.8c-1.2,1.6-2.7,3-4.4,4.1c0,0,1.9-2,3-3.3
				c0.9-1.2,1.7-2.4,2.3-3.8c0.6-1.3-0.6-3.1-1.5-2.2s-1.3,1.9-2.9,3.8c-0.9,1-1.8,1.9-2.9,2.7c1-1.3,1.9-2.7,2.6-4.2
				c1-2-2.3-1-4.3,1c-1.4,1.5-2.6,2.3-2.6,1.9s-2.8,2.5-4.2,4S102.9,271.3,97.1,272.8z"/>
			<path id="_Контур_12" class="st15" d="M76,240c4.1-0.6,7,1.2,8.8,7.4c1.8,6.2,3.1,11.3,3.1,11.3c-1.6,2.3-4.1,4-6.9,4.5
				c-4.9,1.2-6.7-1.1-6.7-1.1s-1.4-6.5-2.2-10.9C71.3,246.8,70.9,240.8,76,240z"/>
			<path class="st16" d="M78.5,211.3c0,0,6.5-9.8-7.5-11.8c-10.1-1.4-16.6,5-17.3,12.1c-0.7,6.7,3.4,13.7,6.4,16.5
				c1.5,0.5,4.6,0.8,8.7-1.1c0.2-1.8,0.2-3.7,0.2-5.5C69,221.5,64.1,211.2,78.5,211.3z"/>
		</g>
		<path class="st14" d="M111.4,265c0,0-1.6-2.9-0.6-3.6s2.4,2,2.7,3s-0.1-0.3-0.1-0.3s-1.1-3.3-0.4-3.9s1.7,0.8,2.6,2.8
			s0.2-0.2,0.2-0.2s-1.6-3.3-0.9-3.7c0.9-0.6,2.4,1.3,3.3,3.1s-1.2,3.8-1.2,3.8L111.4,265z"/>
		<g id="Mobile">
			<path class="st1" d="M114.4,270.2l-5.9-3.4c-0.5-0.3-0.4-0.8,0.1-1.1l14.3-8.3c0.6-0.3,1.4-0.4,2-0.1l5.9,3.4
				c0.5,0.3,0.4,0.8-0.1,1.1l-14.4,8.3C115.8,270.5,115.1,270.5,114.4,270.2z"/>
			<polygon class="st1" points="108.2,266.3 108.2,265.7 108.8,266 			"/>
			<polygon class="st1" points="131.2,261.2 131.2,260.7 130.7,261 			"/>
			<path class="st2" d="M114.4,269.8l-5.9-3.4c-0.5-0.3-0.4-0.8,0.1-1.1l14.3-8.3c0.6-0.4,1.4-0.4,2-0.1l5.9,3.4
				c0.5,0.3,0.4,0.8-0.1,1.1l-14.3,8.3C115.8,270,115.1,270.1,114.4,269.8z"/>
			
				<ellipse transform="matrix(0.867 -0.4983 0.4983 0.867 -119.1541 90.223)" class="st3" cx="109.5" cy="268.3" rx="0.1" ry="0.1"/>
			<ellipse transform="matrix(0.866 -0.5 0.5 0.866 -118.8888 90.4981)" class="st3" cx="109.4" cy="267.1" rx="0.1" ry="0.1"/>
			<ellipse transform="matrix(0.866 -0.5 0.5 0.866 -118.9388 90.6656)" class="st3" cx="109.7" cy="267.3" rx="0.1" ry="0.1"/>
			<ellipse transform="matrix(0.866 -0.5 0.5 0.866 -118.9766 90.8317)" class="st3" cx="110" cy="267.4" rx="0.1" ry="0.1"/>
			<ellipse transform="matrix(0.866 -0.5 0.5 0.866 -119.3605 92.2485)" class="st3" cx="112.5" cy="268.9" rx="0.1" ry="0.1"/>
			<ellipse transform="matrix(0.866 -0.5 0.5 0.866 -119.4033 92.4133)" class="st3" cx="112.7" cy="269" rx="0.1" ry="0.1"/>
			<ellipse transform="matrix(0.866 -0.5 0.5 0.866 -119.4497 92.5771)" class="st3" cx="113" cy="269.2" rx="0.1" ry="0.1"/>
			<ellipse transform="matrix(0.866 -0.5 0.5 0.866 -119.4925 92.7419)" class="st3" cx="113.3" cy="269.3" rx="0.1" ry="0.1"/>
			<path class="st3" d="M111.6,268.5l-0.8-0.5c-0.1,0-0.1-0.1-0.1-0.2l0,0c0-0.1,0-0.1,0.1-0.1l0.8,0.5
				C111.7,268.3,111.7,268.3,111.6,268.5L111.6,268.5C111.7,268.5,111.7,268.5,111.6,268.5z"/>
			<path class="st3" d="M129.4,262.5l-0.7,0.4c0,0-0.1,0-0.1-0.1l0,0c0-0.1,0-0.1,0.1-0.2l0.7-0.4c0,0,0.1,0,0.1,0.1l0,0
				C129.5,262.4,129.5,262.5,129.4,262.5z"/>
			<path class="st3" d="M128.3,263.1l-0.7,0.4c0,0-0.1,0-0.1-0.1l0,0c0-0.1,0-0.1,0.1-0.2l0.7-0.4c0,0,0.1,0,0.1,0.1l0,0
				C128.4,263,128.3,263.1,128.3,263.1z"/>
			<path class="st4" d="M114.4,269.7l-5.9-3.4c-0.5-0.3-0.4-0.8,0.1-1.1l14.3-8.3c0.6-0.3,1.4-0.4,2-0.1l5.9,3.4
				c0.5,0.3,0.4,0.8-0.1,1.1l-14.3,8.3C115.9,270,115.1,270,114.4,269.7z"/>
			<path class="st7" d="M130.2,260.3l-2.3-1.4l0,0c-0.3,0.2-0.7,0.2-1,0c-0.3-0.2-0.3-0.4,0-0.6l0,0l-2.3-1.3
				c-0.4-0.2-0.9-0.2-1.3,0l-14,8.1c-0.3,0.2-0.3,0.5,0,0.7l5.6,3.2c0.4,0.2,0.9,0.2,1.3,0l14-8.1
				C130.6,260.8,130.6,260.5,130.2,260.3z"/>
			
				<linearGradient id="SVGID_2_" gradientUnits="userSpaceOnUse" x1="-1334.6688" y1="-2400.665" x2="-1334.6688" y2="-2385.4268" gradientTransform="matrix(0.87 0.5 1 -0.58 3662.2898 -450.8)">
				<stop  offset="0.21" style="stop-color:#FFFFFF;stop-opacity:0"/>
				<stop  offset="1" style="stop-color:#FFFFFF;stop-opacity:0.2"/>
			</linearGradient>
			<path class="st20" d="M130.2,260.3l-2.3-1.4l0,0c-0.3,0.2-0.7,0.2-1,0c-0.3-0.2-0.3-0.4,0-0.6l0,0l-2.3-1.3
				c-0.4-0.2-0.9-0.2-1.3,0l-14,8.1c-0.3,0.2-0.3,0.5,0,0.7l5.6,3.2c0.4,0.2,0.9,0.2,1.3,0l14-8.1
				C130.6,260.8,130.6,260.5,130.2,260.3z"/>
			<ellipse class="st7" cx="127.3" cy="258.8" rx="0.3" ry="0.1"/>
			<path class="st8" d="M127.2,258.8C127.2,258.8,127.2,258.8,127.2,258.8c0-0.1,0.1-0.1,0.2-0.1c0,0,0,0.1,0,0.1
				C127.3,258.8,127.2,258.8,127.2,258.8z"/>
		</g>
		<path class="st14" d="M123.7,268.8c0,0,3.1-2.8,3-6.6c-0.2-2.6-1.8-0.7-1.8-0.7l-1.6,2.9c-0.8,1.1-1.8,1.9-3,2.5
			c-1.1,0.1-2.2,0.3-3.3,0.5c-1.9,0.4-3.9,2.8-3.9,2.8l2.4,1.9L123.7,268.8z"/>
	</g>
	<g>
		<path class="st9" d="M237.5,246.8l-12.4-7.2c-1.7-1-1.5-2.7,0.5-3.9l11.4-6.6c2.1-1.1,4.5-1.2,6.7-0.3l12.4,7.1
			c1.7,1,1.5,2.7-0.5,3.9l-11.4,6.6C242.1,247.7,239.7,247.8,237.5,246.8z"/>
		<path class="st9" d="M321.8,295.5l-72.5-41.9c-1.7-1-1.5-2.7,0.5-3.9l11.4-6.6c2.1-1.1,4.5-1.3,6.7-0.3l72.5,41.9
			c1.7,1,1.5,2.7-0.5,3.9l-11.4,6.6C326.4,296.3,323.9,296.4,321.8,295.5z"/>
		<g class="st21">
			<path class="st9" d="M212.4,261.3l-12.4-7.2c-1.7-1-1.5-2.7,0.5-3.9l11.4-6.6c2.1-1.1,4.5-1.2,6.7-0.3l12.4,7.2
				c1.7,1,1.5,2.7-0.5,3.9l-11.4,6.6C217,262.2,214.6,262.3,212.4,261.3z"/>
			<path class="st9" d="M296.7,310l-72.5-41.9c-1.7-1-1.5-2.7,0.5-3.9l11.4-6.6c2.1-1.1,4.5-1.3,6.7-0.3l72.5,41.9
				c1.7,1,1.5,2.7-0.5,3.9l-11.4,6.6C301.3,310.8,298.8,310.9,296.7,310z"/>
		</g>
		<path class="st9" d="M187.3,275.8l-12.4-7.2c-1.7-1-1.5-2.7,0.5-3.9l11.4-6.6c2.1-1.1,4.5-1.2,6.7-0.3l12.4,7.1
			c1.7,1,1.5,2.7-0.5,3.9l-11.4,6.6C191.9,276.7,189.5,276.8,187.3,275.8z"/>
		<path class="st9" d="M271.6,324.5l-72.5-41.9c-1.7-1-1.5-2.7,0.5-3.9l11.4-6.6c2.1-1.1,4.5-1.3,6.7-0.3l72.5,41.9
			c1.7,1,1.5,2.7-0.5,3.9l-11.5,6.6C276.2,325.3,273.7,325.4,271.6,324.5z"/>
		<g class="st21">
			<path class="st9" d="M162.3,290.3l-12.4-7.2c-1.7-1-1.5-2.7,0.5-3.9l11.4-6.6c2.1-1.1,4.5-1.2,6.7-0.3l12.4,7.2
				c1.7,1,1.5,2.7-0.5,3.9l-11.4,6.6C166.8,291.2,164.4,291.3,162.3,290.3z"/>
			<path class="st9" d="M246.5,338.9L174,297.1c-1.7-1-1.5-2.7,0.5-3.9l11.4-6.6c2.1-1.1,4.5-1.3,6.7-0.3l72.5,41.9
				c1.7,1,1.5,2.7-0.5,3.9l-11.4,6.6C251.1,339.8,248.6,339.9,246.5,338.9z"/>
		</g>
		<g class="st21">
			<path class="st9" d="M137.1,304.8l-12.4-7.2c-1.7-1-1.5-2.7,0.5-3.9l11.4-6.6c2.1-1.1,4.5-1.2,6.7-0.3l12.4,7.1
				c1.7,1,1.5,2.7-0.5,3.9l-11.4,6.6C141.8,305.6,139.3,305.7,137.1,304.8z"/>
			<path class="st9" d="M221.4,353.4l-72.5-41.9c-1.7-1-1.5-2.7,0.5-3.9l11.4-6.6c2.1-1.1,4.5-1.3,6.7-0.3l72.5,41.9
				c1.7,1,1.5,2.7-0.5,3.9l-11.4,6.6C226,354.3,223.5,354.4,221.4,353.4z"/>
		</g>
	</g>
</g>
</svg>
