<svg height="512" viewBox="0 0 64 64" width="512" xmlns="http://www.w3.org/2000/svg"><path d="m50 45h-47v5a1 1 0 0 0 1 1h48a1 1 0 0 0 1-1v-5z" fill="#ff9811"/><path d="m52.09 43.17-2.2-4.39-2.62-5.23-.27-.55h-9-29l-6 12h21 8 12 3 3 3z" fill="#ffa733"/><path d="m9 11h38v22h-38z" fill="#5aaae7"/><path d="m56.58 48.79-2.58-.7v2.91l-7 7-7-7v-2.91l-2.58.7a6.019 6.019 0 0 0 -3.23 2.21 5.946 5.946 0 0 0 -1.19 3.58v6.42h28v-6.42a6.013 6.013 0 0 0 -4.42-5.79z" fill="#00ccb3"/><path d="m53 47.82-1.64-.45-4.36 3.63-4.36-3.63-2.64.72v2.91l7 7 7-7v-2.91z" fill="#e6e7e8"/><path d="m50 47v-2.58a8.049 8.049 0 0 1 -6 0v2.58l-1.36.37 4.36 3.63 4.36-3.63z" fill="#ffb655"/><path d="m50.34 31.68-.34-.68-1.66 1.66a7.542 7.542 0 0 1 -1.07.89 7.935 7.935 0 0 1 -4.58 1.45h-3.69v2a7.851 7.851 0 0 0 1.08 4 7.575 7.575 0 0 0 1.26 1.66 8.026 8.026 0 0 0 8.66 1.76 8.028 8.028 0 0 0 5-7.42v-2l.01-.04a5.986 5.986 0 0 1 -4.67-3.28z" fill="#ffc477"/><path d="m50 31-1.66 1.66a7.542 7.542 0 0 1 -1.07.89l-.27-.55v-10a9 9 0 0 1 9 9v3h-.29a5.374 5.374 0 0 1 -.7-.04 5.986 5.986 0 0 1 -4.67-3.28z" fill="#8b5e3c"/><path d="m47 23v10h-9v-1a9 9 0 0 1 9-9z" fill="#8b5e3c"/><path d="m47 33 .27.55a7.935 7.935 0 0 1 -4.58 1.45h-4.69v-2z" fill="#8b5e3c"/><path d="m34 20a3.948 3.948 0 0 1 -.95 2.57 4.549 4.549 0 0 0 -1.01 2.43 5.07 5.07 0 0 0 -.04.68v.32a2.015 2.015 0 0 1 -2 2 2 2 0 0 1 -1-.27 1.813 1.813 0 0 0 .41-.32 1.955 1.955 0 0 0 .59-1.41v-.32a5.07 5.07 0 0 1 .04-.68 4.549 4.549 0 0 1 1.01-2.43 3.979 3.979 0 0 0 -2.06-6.44c.02-.01.03-.02.05-.02a4.007 4.007 0 0 1 4.96 3.89z" fill="#3d9ae2"/><path d="m24 45h8v2a1 1 0 0 1 -1 1h-6a1 1 0 0 1 -1-1z" fill="#ee8700"/><path d="m9 11v-6a2.006 2.006 0 0 1 2-2h34a2.006 2.006 0 0 1 2 2v6z" fill="#ff5023"/><path d="m25.94 25h4.1a5.07 5.07 0 0 0 -.04.68v.32a2.015 2.015 0 0 1 -2 2 2.006 2.006 0 0 1 -2-2v-.15a6.073 6.073 0 0 0 -.06-.85z" fill="#ee8700"/><path d="m32 20a3.948 3.948 0 0 1 -.95 2.57 4.549 4.549 0 0 0 -1.01 2.43h-4.1a4.851 4.851 0 0 0 -1.03-2.48 3.985 3.985 0 0 1 2.13-6.41 4.007 4.007 0 0 1 4.96 3.89z" fill="#ffd422"/><path d="m47 42a4 4 0 0 1 -4-4h2a2 2 0 0 0 4 0h2a4 4 0 0 1 -4 4z" fill="#ffa733"/><g fill="#cc7400"><path d="m10 40h2v2h-2z"/><path d="m14 40h2v2h-2z"/><path d="m18 40h20v2h-20z"/><path d="m15 36h2v2h-2z"/><path d="m11 36h2v2h-2z"/><path d="m19 36h2v2h-2z"/><path d="m23 36h2v2h-2z"/><path d="m27 36h2v2h-2z"/><path d="m31 36h2v2h-2z"/></g><path d="m12 6h2v2h-2z" fill="#ed1c24"/><path d="m16 6h2v2h-2z" fill="#ed1c24"/><path d="m20 6h2v2h-2z" fill="#ed1c24"/><path d="m23 24h10v2h-10z" fill="#ee8700"/><path d="m36 19.764h2v4.472h-2z" fill="#ffd422" transform="matrix(.447 -.894 .894 .447 .776 45.255)"/><path d="m34.764 15h4.472v2h-4.472z" fill="#ffd422" transform="matrix(.894 -.447 .447 .894 -3.249 18.236)"/><path d="m16.764 21h4.472v2h-4.472z" fill="#ffd422" transform="matrix(.894 -.447 .447 .894 -7.833 10.82)"/><path d="m18 13.764h2v4.472h-2z" fill="#ffd422" transform="matrix(.447 -.894 .894 .447 -3.808 25.839)"/></svg>