<svg height="464pt" viewBox="0 0 464.05599 464" width="464pt" xmlns="http://www.w3.org/2000/svg"><path d="m407.199219 88.429688c2.597656-13.984376-1.1875-28.402344-10.316407-39.3125-9.132812-10.910157-22.65625-17.175782-36.882812-17.085938-7.183594.003906-14.269531 1.644531-20.71875 4.800781-16.988281-26.519531-47.972656-40.585937-79.117188-35.921875-31.148437 4.664063-56.648437 27.1875-65.125 57.519532-2.03125 7.019531-3.054687 14.292968-3.039062 21.601562 0 2.71875.160156 5.359375.398438 8h-.398438c-35.347656 0-64 28.652344-64 64s28.652344 64 64 64h208c33.96875.03125 62.039062-26.480469 63.953125-60.394531 1.914063-33.914063-23-63.414063-56.753906-67.207031zm0 0" fill="#3d9ae2"/><path d="m336 304.03125v112c-.027344 8.824219-7.175781 15.972656-16 16h-16v-96c-.027344-8.824219-7.175781-15.972656-16-16h-128v-16c.027344-8.824219 7.175781-15.972656 16-16h144c8.824219.027344 15.972656 7.175781 16 16zm0 0" fill="#009986"/><path d="m304 432.03125v16c-.027344 8.824219-7.175781 15.972656-16 16h-144c-8.824219-.027344-15.972656-7.175781-16-16v-96h176zm0 0" fill="#00ccb3"/><path d="m304 336.03125v16h-176v-16c.027344-8.824219 7.175781-15.972656 16-16h144c8.824219.027344 15.972656 7.175781 16 16zm0 0" fill="#ff6243"/><path d="m279.199219 128.429688c2.597656-13.984376-1.1875-28.402344-10.316407-39.3125-9.132812-10.910157-22.65625-17.175782-36.882812-17.085938-7.183594.003906-14.269531 1.644531-20.71875 4.800781-4.46875-6.90625-9.945312-13.109375-16.242188-18.402343-23.871093-19.777344-57.019531-23.984376-85.074218-10.792969-28.054688 13.1875-45.964844 41.394531-45.964844 72.394531 0 2.71875.160156 5.359375.398438 8h-.398438c-35.347656 0-64 28.652344-64 64s28.652344 64 64 64h208c26.085938-.003906 49.5625-15.824219 59.359375-40 3.058594-7.632812 4.632813-15.777344 4.640625-24 .003906-32.5625-24.445312-59.9375-56.800781-63.601562zm0 0" fill="#5aaae7"/><g fill="#1e81ce"><path d="m400 272.03125h16v48h-16zm0 0"/><path d="m400 336.03125h16v16h-16zm0 0"/><path d="m440 312.03125h16v32h-16zm0 0"/><path d="m440 360.03125h16v16h-16zm0 0"/><path d="m440 392.03125h16v16h-16zm0 0"/><path d="m360 320.03125h16v48h-16zm0 0"/><path d="m360 384.03125h16v16h-16zm0 0"/><path d="m360 432.03125h16v16h-16zm0 0"/><path d="m48 296.03125h16v48h-16zm0 0"/><path d="m48 360.03125h16v16h-16zm0 0"/><path d="m8 328.03125h16v32h-16zm0 0"/><path d="m8 376.03125h16v16h-16zm0 0"/><path d="m8 408.03125h16v16h-16zm0 0"/><path d="m88 320.03125h16v48h-16zm0 0"/><path d="m88 384.03125h16v16h-16zm0 0"/><path d="m88 432.03125h16v16h-16zm0 0"/></g><path d="m208 392.03125h16v16h-16zm0 0" fill="#009986"/><path d="m240 392.03125h16v16h-16zm0 0" fill="#009986"/><path d="m176 392.03125h16v16h-16zm0 0" fill="#009986"/></svg>