<svg height="512" viewBox="0 0 64 64" width="512" xmlns="http://www.w3.org/2000/svg"><path d="m61 13v42a4 4 0 0 1 -4 4h-50a4 4 0 0 1 -4-4v-42z" fill="#5aaae7"/><path d="m18 25a2 2 0 0 1 1-1.73 2 2 0 1 0 0 3.46 2 2 0 0 1 -1-1.73zm2-7a8.262 8.262 0 0 0 -1 .06 8.994 8.994 0 0 1 2 17.42v5.52l-1 2 1 2v5l-2 2 1 1 3-3v-5l-1-2 1-2v-5.52a9 9 0 0 0 -3-17.48z" fill="#3d9ae2"/><path d="m30 23h26v8h-26z" fill="#ffde55"/><path d="m61 9v4h-58v-4a4 4 0 0 1 4-4h50a4 4 0 0 1 4 4z" fill="#ff5023"/><path d="m27 27a9 9 0 0 1 -6 8.48v5.52l-1 2 1 2v5l-3 3-3-3v-2l1-2-1-2v-8.52a9 9 0 1 1 12-8.48zm-7-2a2 2 0 1 0 -2 2 2.006 2.006 0 0 0 2-2z" fill="#c6c5ca"/><path d="m8 8h2v2h-2z" fill="#ed1c24"/><path d="m12 8h2v2h-2z" fill="#ed1c24"/><path d="m16 8h2v2h-2z" fill="#ed1c24"/><path d="m34 26h2v2h-2z" fill="#ddb200"/><path d="m38 26h2v2h-2z" fill="#ddb200"/><path d="m42 26h2v2h-2z" fill="#ddb200"/><path d="m46 26h2v2h-2z" fill="#ddb200"/><path d="m50 26h2v2h-2z" fill="#ddb200"/><path d="m10 38h2v6h-2z" fill="#1e81ce"/><path d="m10 46h2v2h-2z" fill="#1e81ce"/><g fill="#3d9ae2"><path d="m30 36h12v2h-12z"/><path d="m44 36h12v2h-12z"/><path d="m30 40h12v2h-12z"/><path d="m44 40h12v2h-12z"/><path d="m30 44h12v2h-12z"/><path d="m44 44h12v2h-12z"/><path d="m30 48h12v2h-12z"/><path d="m44 48h12v2h-12z"/></g></svg>