<?xml version="1.0" encoding="iso-8859-1"?>
<!-- Generator: Adobe Illustrator 19.0.0, SVG Export Plug-In . SVG Version: 6.00 Build 0)  -->
<svg version="1.1" id="Layer_1" xmlns="http://www.w3.org/2000/svg" xmlns:xlink="http://www.w3.org/1999/xlink" x="0px" y="0px"
	 viewBox="0 0 392.509 392.509" style="enable-background:new 0 0 392.509 392.509;" xml:space="preserve">
<path style="fill:#FFFFFF;" d="M303.697,214.368c0-32.323-24.048-58.634-53.527-58.634c-21.786,0-36.396,6.594-44.606,20.105l0,0
	c-4.267,6.982-14.352,6.982-18.618,0l0,0c-8.21-13.511-22.82-20.105-44.606-20.105c-29.543,0-53.527,26.246-53.527,58.634
	c0,43.184,71.758,119.143,107.507,152.436C231.81,333.059,303.697,256.388,303.697,214.368z"/>
<path style="fill:#FFC10D;" d="M250.105,177.519c-20.105,0-24.178,6.723-25.988,9.632c-12.735,20.945-43.184,20.945-55.855,0
	c-1.745-2.844-5.883-9.632-25.988-9.632c-17.519,0-31.741,16.549-31.741,36.848c0,24.824,41.18,78.287,85.527,122.182
	c44.671-44.735,85.85-98.909,85.85-122.182C281.911,194.004,267.689,177.519,250.105,177.519z"/>
<path style="fill:#56ACE0;" d="M196.19,229.947c-6.594,0-11.96,5.301-11.96,11.96c0,6.594,5.301,11.96,11.96,11.96
	c6.594,0,11.96-5.301,11.96-11.96S202.784,229.947,196.19,229.947z"/>
<g>
	<path style="fill:#194F82;" d="M270.145,136.857V73.956C270.145,33.164,236.982,0,196.19,0s-73.956,33.164-73.956,73.956v62.901
		c-31.806,9.438-55.337,40.469-55.337,77.511c0,64.517,109.576,164.267,122.117,175.386c4.202,3.685,10.408,3.685,14.61-0.065
		c12.541-11.378,121.988-112.485,121.988-175.321C325.483,177.39,301.952,146.295,270.145,136.857z M144.02,73.956
		c0-28.768,23.402-52.17,52.17-52.17s52.17,23.402,52.17,52.17v60.057c-22.303,0.323-39.822,6.594-52.17,18.683
		c-12.347-12.154-29.802-18.36-52.17-18.683V73.956z M196.061,366.804C160.505,333.511,88.747,257.552,88.747,214.368
		c0-32.323,24.048-58.634,53.527-58.634c21.786,0,36.396,6.594,44.606,20.105c4.267,6.982,14.352,6.982,18.618,0
		c8.21-13.511,22.82-20.105,44.606-20.105c29.543,0,53.527,26.246,53.527,58.634C303.568,256.388,231.745,333.059,196.061,366.804z"
		/>
	<path style="fill:#194F82;" d="M196.19,208.162c-18.618,0-33.745,15.127-33.745,33.745c0,14.869,9.568,27.345,22.885,31.935v23.725
		c0,6.012,4.848,10.925,10.925,10.925c6.077,0,10.925-4.848,10.925-10.925v-23.725c13.317-4.59,22.885-17.131,22.885-31.935
		C229.935,223.289,214.808,208.162,196.19,208.162z M196.19,253.867c-6.594,0-11.96-5.301-11.96-11.96
		c0-6.594,5.301-11.96,11.96-11.96c6.594,0,11.96,5.301,11.96,11.96S202.784,253.867,196.19,253.867z"/>
</g>
<g>
</g>
<g>
</g>
<g>
</g>
<g>
</g>
<g>
</g>
<g>
</g>
<g>
</g>
<g>
</g>
<g>
</g>
<g>
</g>
<g>
</g>
<g>
</g>
<g>
</g>
<g>
</g>
<g>
</g>
</svg>
