<svg height="464pt" viewBox="0 0 464 464" width="464pt" xmlns="http://www.w3.org/2000/svg"><path d="m440 416h-440v32c.0273438 8.824219 7.175781 15.972656 16 16h432c8.824219-.027344 15.972656-7.175781 16-16v-32zm0 0" fill="#acabb1"/><path d="m24 160h416v256h-416zm0 0" fill="#5aaae7"/><path d="m408 96h-352c-17.671875 0-32 14.328125-32 32v32h416v-32c0-17.671875-14.328125-32-32-32zm0 0" fill="#ff6243"/><path d="m448 0h-176c-8.824219.0273438-15.972656 7.175781-16 16v320c.027344 8.824219 7.175781 15.972656 16 16h176c8.824219-.027344 15.972656-7.175781 16-16v-320c-.027344-8.824219-7.175781-15.9726562-16-16zm0 0" fill="#ffde55"/><path d="m192 416h80v16c0 4.417969-3.582031 8-8 8h-64c-4.417969 0-8-3.582031-8-8zm0 0" fill="#898890"/><path d="m256 200v32l-9.359375-9.359375c5.980469-6.019531 9.34375-14.15625 9.359375-22.640625zm0 0" fill="#5aaae7"/><path d="m256 168v32c-.015625-8.484375-3.378906-16.621094-9.359375-22.640625zm0 0" fill="#5aaae7"/><g fill="#00ccb3"><path d="m246.640625 177.359375c10.800781 10.789063 12.476563 27.703125 4.003906 40.402344-8.476562 12.699219-24.738281 17.644531-38.84375 11.8125-14.109375-5.835938-22.132812-20.820313-19.164062-35.792969 2.964843-14.976562 16.097656-25.769531 31.363281-25.78125 8.484375.015625 16.621094 3.378906 22.640625 9.359375zm0 0"/><path d="m320 272c11.449219-.011719 21.3125 8.070312 23.554688 19.296875 2.246093 11.230469-3.757813 22.480469-14.332032 26.871094-10.574218 4.386719-22.78125.695312-29.148437-8.820313-6.367188-9.515625-5.125-22.207031 2.964843-30.308594 4.496094-4.5 10.597657-7.035156 16.960938-7.039062zm0 0"/><path d="m376 200c0 13.253906-10.746094 24-24 24s-24-10.746094-24-24 10.746094-24 24-24 24 10.746094 24 24zm0 0"/><path d="m342.558594 96h-45.117188c3.355469-9.585938 12.402344-16 22.558594-16s19.203125 6.414062 22.558594 16zm0 0"/><path d="m297.441406 96h45.117188c.96875 2.554688 1.457031 5.265625 1.441406 8 0 13.253906-10.746094 24-24 24s-24-10.746094-24-24c-.015625-2.734375.472656-5.445312 1.441406-8zm0 0"/></g><path d="m320 0h80v16c0 4.417969-3.582031 8-8 8h-64c-4.417969 0-8-3.582031-8-8zm0 0" fill="#898890"/><path d="m64 120h16v16h-16zm0 0" fill="#cd2a00"/><path d="m96 120h16v16h-16zm0 0" fill="#cd2a00"/><path d="m128 120h16v16h-16zm0 0" fill="#cd2a00"/><path d="m240.980469 228.292969 11.3125-11.3125 56.398437 56.398437-11.3125 11.316406zm0 0" fill="#00665a"/><path d="m240.984375 171.707031 56.402344-56.402343 11.3125 11.316406-56.398438 56.398437zm0 0" fill="#00665a"/><path d="m256 192h72v16h-72zm0 0" fill="#00665a"/><path d="m64 272h112v16h-112zm0 0" fill="#3d9ae2"/><path d="m64 304h112v16h-112zm0 0" fill="#3d9ae2"/><path d="m64 336h112v16h-112zm0 0" fill="#3d9ae2"/><path d="m64 240h112v16h-112zm0 0" fill="#3d9ae2"/><path d="m224 240c-22.089844 0-40-17.910156-40-40s17.910156-40 40-40 40 17.910156 40 40c-.027344 22.082031-17.917969 39.972656-40 40zm0-64c-13.253906 0-24 10.746094-24 24s10.746094 24 24 24 24-10.746094 24-24-10.746094-24-24-24zm0 0" fill="#009986"/><path d="m352 232c-17.671875 0-32-14.328125-32-32s14.328125-32 32-32 32 14.328125 32 32-14.328125 32-32 32zm0-48c-8.835938 0-16 7.164062-16 16s7.164062 16 16 16 16-7.164062 16-16-7.164062-16-16-16zm0 0" fill="#009986"/><path d="m320 136c-17.671875 0-32-14.328125-32-32s14.328125-32 32-32 32 14.328125 32 32-14.328125 32-32 32zm0-48c-8.835938 0-16 7.164062-16 16s7.164062 16 16 16 16-7.164062 16-16-7.164062-16-16-16zm0 0" fill="#009986"/><path d="m320 328c-17.671875 0-32-14.328125-32-32s14.328125-32 32-32 32 14.328125 32 32-14.328125 32-32 32zm0-48c-8.835938 0-16 7.164062-16 16s7.164062 16 16 16 16-7.164062 16-16-7.164062-16-16-16zm0 0" fill="#009986"/></svg>