<svg height="464pt" viewBox="-48 0 464 464" width="464pt" xmlns="http://www.w3.org/2000/svg"><path d="m16 0h240c8.835938 0 16 7.164062 16 16v432c0 8.835938-7.164062 16-16 16h-240c-8.835938 0-16-7.164062-16-16v-432c0-8.835938 7.164062-16 16-16zm0 0" fill="#78b9eb"/><path d="m240 160v248c0 4.417969-3.582031 8-8 8h-192c-4.417969 0-8-3.582031-8-8v-248zm0 0" fill="#00ccb3"/><path d="m368 352v24h-64v-24zm0 0" fill="#ff9811"/><path d="m336 40 32 48h-64zm0 0" fill="#bcbec0"/><path d="m368 376v16c0 17.671875-14.328125 32-32 32s-32-14.328125-32-32v-16zm0 0" fill="#e6e7e8"/><path d="m336 88h32v264h-32zm0 0" fill="#009986"/><path d="m304 88h32v264h-32zm0 0" fill="#00ccb3"/><path d="m64 208h80v48h-80zm0 0" fill="#ffa733"/><path d="m240 120v40h-208v-40c0-4.417969 3.582031-8 8-8h192c4.417969 0 8 3.582031 8 8zm0 0" fill="#ff6243"/><path d="m200 0-6.480469 25.921875c-.882812 3.566406-4.082031 6.074219-7.757812 6.078125h-99.523438c-3.675781-.003906-6.875-2.511719-7.757812-6.078125l-6.480469-25.921875zm0 0" fill="#898890"/><g fill="#1e81ce"><path d="m80 72h16v16h-16zm0 0"/><path d="m112 72h16v16h-16zm0 0"/><path d="m144 72h16v16h-16zm0 0"/><path d="m176 72h16v16h-16zm0 0"/></g><path d="m168 208h48v16h-48zm0 0" fill="#009986"/><path d="m168 240h48v16h-48zm0 0" fill="#009986"/><path d="m56 296h160v16h-160zm0 0" fill="#00b39d"/><path d="m56 328h160v16h-160zm0 0" fill="#00b39d"/><path d="m56 360h160v16h-160zm0 0" fill="#00b39d"/></svg>