<svg height="472pt" viewBox="-3 0 471 472" width="472pt" xmlns="http://www.w3.org/2000/svg"><path d="m464.5 64v352c-.027344 8.824219-7.175781 15.972656-16 16h-432c-8.824219-.027344-15.972656-7.175781-16-16v-352zm0 0" fill="#5aaae7"/><path d="m360.5 432c-2.871094-.007812-5.695312.765625-8.160156 2.238281.097656-.742187.148437-1.488281.160156-2.238281 0-8.835938-7.164062-16-16-16s-16 7.164062-16 16h-80c0-8.835938-7.164062-16-16-16s-16 7.164062-16 16c.011719.75.0625 1.496094.160156 2.238281-2.464844-1.472656-5.289062-2.246093-8.160156-2.238281-8.835938 0-16 7.164062-16 16s7.164062 16 16 16h160c8.835938 0 16-7.164062 16-16s-7.164062-16-16-16zm0 0" fill="#e6e7e8"/><path d="m296.5 200c0 8.835938-7.164062 16-16 16s-16-7.164062-16-16 7.164062-16 16-16 16 7.164062 16 16zm0 0" fill="#ff6243"/><path d="m280.5 360c13.253906 0 24 10.746094 24 24 0 13.28125-10.71875 40-24 40s-24-26.71875-24-40c0-13.253906 10.746094-24 24-24zm0 0" fill="#ff5023"/><path d="m320.5 304-16 24h-48l-16-24zm0 0" fill="#ee8700"/><path d="m240.5 240v64h-36.480469c-2.621093.003906-5.078125-1.28125-6.5625-3.441406-1.488281-2.15625-1.816406-4.910156-.878906-7.359375l12.160156-32.398438c4.625-12.523437 16.574219-20.832031 29.921875-20.800781zm0 0" fill="#ee8700"/><path d="m322.339844 240c13.347656-.03125 25.296875 8.277344 29.921875 20.800781l12.160156 32.398438c.9375 2.449219.609375 5.203125-.878906 7.359375-1.484375 2.160156-3.941407 3.445312-6.5625 3.441406h-36.480469v-64zm0 0" fill="#ee8700"/><path d="m296.5 200c0-8.835938-7.164062-16-16-16s-16 7.164062-16 16 7.164062 16 16 16c8.824219-.027344 15.972656-7.175781 16-16zm18.480469-16.480469c3.632812 5.265625 5.558593 11.523438 5.519531 17.921875v102.558594h-80v-102.558594c-.039062-6.398437 1.886719-12.65625 5.519531-17.921875 8-11.679687 23.199219-31.519531 34.480469-31.519531s26.480469 19.839844 34.480469 31.519531zm0 0" fill="#ff9811"/><path d="m464.5 16v48h-464v-48c.027344-8.824219 7.175781-15.9726562 16-16h432c8.824219.0273438 15.972656 7.175781 16 16zm0 0" fill="#ff6243"/><path d="m152.5 456h256v16h-256zm0 0" fill="#c6c5ca"/><g fill="#1e81ce"><path d="m368.5 320h16v32h-16zm0 0"/><path d="m368.5 368h16v16h-16zm0 0"/><path d="m400.5 336h16v32h-16zm0 0"/><path d="m400.5 384h16v16h-16zm0 0"/><path d="m176.5 320h16v32h-16zm0 0"/><path d="m176.5 368h16v16h-16zm0 0"/><path d="m144.5 336h16v32h-16zm0 0"/><path d="m144.5 384h16v16h-16zm0 0"/></g><path d="m40.5 24h16v16h-16zm0 0" fill="#cd2a00"/><path d="m72.5 24h16v16h-16zm0 0" fill="#cd2a00"/><path d="m104.5 24h16v16h-16zm0 0" fill="#cd2a00"/><path d="m176.5 104h16v16h-16zm0 0" fill="#1e81ce"/><path d="m208.5 104h16v16h-16zm0 0" fill="#1e81ce"/><path d="m240.5 104h16v16h-16zm0 0" fill="#1e81ce"/><path d="m272.5 104h16v16h-16zm0 0" fill="#1e81ce"/><path d="m168.5 24h176v16h-176zm0 0" fill="#e6e7e8"/><path d="m48.5 152h112v16h-112zm0 0" fill="#3d9ae2"/><path d="m48.5 184h112v16h-112zm0 0" fill="#3d9ae2"/><path d="m48.5 216h112v16h-112zm0 0" fill="#3d9ae2"/></svg>