<svg height="464pt" viewBox="-31 0 463 464" width="464pt" xmlns="http://www.w3.org/2000/svg"><path d="m368.5 128h-368v176h400v-176zm0 0" fill="#5aaae7"/><path d="m368.5 64h-336c-17.671875 0-32 14.328125-32 32v32h400v-32c0-17.671875-14.328125-32-32-32zm0 0" fill="#ff6243"/><path d="m152.5 0h192c4.417969 0 8 3.582031 8 8v256c0 4.417969-3.582031 8-8 8h-192c-4.417969 0-8-3.582031-8-8v-256c0-4.417969 3.582031-8 8-8zm0 0" fill="#e6e7e8"/><path d="m240.5 160v32h-48v-48h48zm0 0" fill="#ff9811"/><path d="m192.5 48v48h48v-48zm0 0" fill="#ff9811"/><path d="m296.5 440v16c0 4.417969-3.582031 8-8 8h-176c-4.417969 0-8-3.582031-8-8v-16c0-4.417969 3.582031-8 8-8h176c4.417969 0 8 3.582031 8 8zm0 0" fill="#787680"/><path d="m256.5 368 8 64h-128l8-64zm0 0" fill="#898890"/><path d="m400.5 304v32c0 17.671875-14.328125 32-32 32h-336c-17.671875 0-32-14.328125-32-32v-32zm0 0" fill="#acabb1"/><path d="m344.5 328h16v16h-16zm0 0" fill="#898890"/><g fill="#cd2a00"><path d="m40.5 88h16v16h-16zm0 0"/><path d="m72.5 88h16v16h-16zm0 0"/><path d="m104.5 88h16v16h-16zm0 0"/><path d="m224.730469 87.769531c-2.121094.003907-4.15625-.839843-5.65625-2.34375l-15.765625-15.769531 11.3125-11.3125 10.109375 10.113281 26.113281-26.113281 11.3125 11.3125-31.769531 31.769531c-1.496094 1.503907-3.53125 2.347657-5.65625 2.34375zm0 0"/><path d="m224.730469 183.769531c-2.121094.003907-4.15625-.839843-5.65625-2.34375l-15.765625-15.769531 11.3125-11.3125 10.109375 10.113281 26.113281-26.113281 11.3125 11.3125-31.769531 31.769531c-1.496094 1.503907-3.53125 2.347657-5.65625 2.34375zm0 0"/></g><path d="m280.5 48h32v16h-32zm0 0" fill="#d8d7da"/><path d="m280.5 80h32v16h-32zm0 0" fill="#d8d7da"/><path d="m280.5 144h32v16h-32zm0 0" fill="#d8d7da"/><path d="m280.5 176h32v16h-32zm0 0" fill="#d8d7da"/><path d="m184.5 216h16v16h-16zm0 0" fill="#c6c5ca"/><path d="m216.5 216h32v16h-32zm0 0" fill="#c6c5ca"/><path d="m264.5 216h48v16h-48zm0 0" fill="#c6c5ca"/><path d="m40.5 168h80v16h-80zm0 0" fill="#3d9ae2"/><path d="m40.5 200h80v16h-80zm0 0" fill="#3d9ae2"/><path d="m40.5 232h80v16h-80zm0 0" fill="#3d9ae2"/><path d="m40.5 264h80v16h-80zm0 0" fill="#3d9ae2"/></svg>