<svg height="464pt" viewBox="0 -24 464 464" width="464pt" xmlns="http://www.w3.org/2000/svg"><path d="m416 64v336c-.027344 8.824219-7.175781 15.972656-16 16h-384c-8.824219-.027344-15.9726562-7.175781-16-16v-336zm0 0" fill="#5aaae7"/><path d="m80 368c0 8.835938-7.164062 16-16 16s-16-7.164062-16-16 7.164062-16 16-16 16 7.164062 16 16zm0 0" fill="#ff9811"/><path d="m80 128c0 8.835938-7.164062 16-16 16s-16-7.164062-16-16 7.164062-16 16-16 16 7.164062 16 16zm0 0" fill="#ff9811"/><path d="m80 232c0 8.835938-7.164062 16-16 16s-16-7.164062-16-16 7.164062-16 16-16 16 7.164062 16 16zm0 0" fill="#ffd422"/><path d="m336 112c0 8.835938-7.164062 16-16 16s-16-7.164062-16-16 7.164062-16 16-16 16 7.164062 16 16zm0 0" fill="#ffd422"/><path d="m248 344h32v24h-32zm0 0" fill="#898890"/><path d="m416 344h-8v24h32v-24zm0 0" fill="#898890"/><path d="m416 256h-8v24h32v-24zm0 0" fill="#898890"/><path d="m248 256h32v24h-32zm0 0" fill="#898890"/><path d="m456 280h-224c-4.417969 0-8 3.582031-8 8v48c0 4.417969 3.582031 8 8 8h224c4.417969 0 8-3.582031 8-8v-48c0-4.417969-3.582031-8-8-8zm0 0" fill="#00ccb3"/><path d="m456 192h-224c-4.417969 0-8 3.582031-8 8v48c0 4.417969 3.582031 8 8 8h224c4.417969 0 8-3.582031 8-8v-48c0-4.417969-3.582031-8-8-8zm0 0" fill="#00ccb3"/><path d="m416 16v48h-416v-48c.0273438-8.824219 7.175781-15.9726562 16-16h384c8.824219.0273438 15.972656 7.175781 16 16zm0 0" fill="#ff6243"/><path d="m40 24h16v16h-16zm0 0" fill="#cd2a00"/><path d="m72 24h16v16h-16zm0 0" fill="#cd2a00"/><path d="m104 24h16v16h-16zm0 0" fill="#cd2a00"/><path d="m168 24h176v16h-176zm0 0" fill="#e6e7e8"/><g fill="#009986"><path d="m248 304h16v16h-16zm0 0"/><path d="m280 304h16v16h-16zm0 0"/><path d="m312 304h16v16h-16zm0 0"/><path d="m360 296h16v32h-16zm0 0"/><path d="m392 296h16v32h-16zm0 0"/><path d="m424 296h16v32h-16zm0 0"/><path d="m248 216h16v16h-16zm0 0"/><path d="m280 216h16v16h-16zm0 0"/><path d="m312 216h16v16h-16zm0 0"/><path d="m360 208h16v32h-16zm0 0"/><path d="m392 208h16v32h-16zm0 0"/><path d="m424 208h16v32h-16zm0 0"/></g><path d="m232 104c-13.253906 0-24 10.746094-24 24v16c0 4.417969-3.582031 8-8 8h-56v-8c0-13.253906-10.746094-24-24-24h-16v16h16c4.417969 0 8 3.582031 8 8v80h-24v16h24v48c0 4.417969-3.582031 8-8 8h-40c-13.253906 0-24 10.746094-24 24v8h16v-8c0-4.417969 3.582031-8 8-8h40c13.253906 0 24-10.746094 24-24v-8h16v32c0 8.835938 7.164062 16 16 16h24v-16h-24v-80h24v-16h-24c-8.835938 0-16 7.164062-16 16v32h-16v-96h56c13.253906 0 24-10.746094 24-24v-16c0-4.417969 3.582031-8 8-8h48v-16zm0 0" fill="#1e81ce"/></svg>