<svg height="512pt" viewBox="-6 0 512 512" width="512pt" xmlns="http://www.w3.org/2000/svg"><path d="m72.128906 419.929688c-8.113281 2.109374-16.675781-.960938-21.726562-7.648438-31.632813-41.921875-50.402344-94.097656-50.402344-150.660156 0-138.28125 112.097656-250.378906 250.378906-250.378906s250.378906 112.097656 250.378906 250.378906c0 56.5625-18.765624 108.738281-50.402343 150.660156-5.050781 6.6875-13.613281 9.757812-21.726563 7.648438-54.386718-14.128907-114.722656-21.996094-178.25-21.996094s-123.863281 7.867187-178.25 21.996094zm0 0" fill="#97f0f2"/><path d="m111.722656 432.65625c0 15.945312-18.949218 24.164062-30.691406 13.375-11.332031-10.40625-21.699219-21.847656-30.957031-34.167969v-345.4375c0-8.464843 6.863281-15.328125 15.332031-15.328125h65.351562c-10.511718 0-19.035156 8.523438-19.035156 19.035156zm0 0" fill="#0069a3"/><path d="m450.683594 66.425781v345.4375c-12.164063 16.1875-26.238282 30.851563-41.898438 43.660157-43.152344 35.296874-273.65625 35.289062-316.808594-.007813-3.84375-3.144531-7.59375-6.402344-11.242187-9.765625v-379.324219c0-8.464843 6.863281-15.328125 15.328125-15.328125h339.289062c8.46875 0 15.332032 6.863282 15.332032 15.328125zm0 0" fill="#08c"/><path d="m408.78125 112.414062v343.105469c-43.152344 35.296875-98.300781 56.480469-158.402344 56.480469-60.101562 0-115.246094-21.183594-158.402344-56.480469v-343.105469c0-5.644531 4.574219-10.21875 10.21875-10.21875h296.367188c5.644531 0 10.21875 4.574219 10.21875 10.21875zm0 0" fill="#fff1c5"/><path d="m228.917969 439.441406v10.21875c0 2.820313-2.289063 5.109375-5.109375 5.109375h-107.304688c-2.824218 0-5.109375-2.289062-5.109375-5.109375v-10.21875c0-2.820312 2.285157-5.109375 5.109375-5.109375h107.304688c2.820312 0 5.109375 2.289063 5.109375 5.109375zm-112.414063-198.878906h107.304688c2.820312 0 5.109375-2.289062 5.109375-5.109375v-10.222656c0-2.820313-2.289063-5.109375-5.109375-5.109375h-107.304688c-2.824218 0-5.109375 2.289062-5.109375 5.109375v10.222656c0 2.820313 2.285157 5.109375 5.109375 5.109375zm0 107.105469h107.304688c2.820312 0 5.109375-2.289063 5.109375-5.113281v-10.21875c0-2.820313-2.289063-5.109376-5.109375-5.109376h-107.304688c-2.824218 0-5.109375 2.289063-5.109375 5.109376v10.21875c0 2.824218 2.285157 5.113281 5.109375 5.113281zm158.402344-163.3125h-158.402344c-2.824218 0-5.109375 2.285156-5.109375 5.109375v10.21875c0 2.820312 2.285157 5.109375 5.109375 5.109375h158.402344c2.820312 0 5.109375-2.289063 5.109375-5.109375v-10.21875c0-2.824219-2.289063-5.109375-5.109375-5.109375zm0 214.207031h-158.402344c-2.824218 0-5.109375 2.289062-5.109375 5.109375v10.21875c0 2.824219 2.285157 5.113281 5.109375 5.113281h158.402344c2.820312 0 5.109375-2.289062 5.109375-5.113281v-10.21875c0-2.820313-2.289063-5.109375-5.109375-5.109375zm0-107.105469h-158.402344c-2.824218 0-5.109375 2.289063-5.109375 5.113281v10.21875c0 2.820313 2.285157 5.109376 5.109375 5.109376h158.402344c2.820312 0 5.109375-2.289063 5.109375-5.109376v-10.21875c0-2.824218-2.289063-5.113281-5.109375-5.113281zm0 0" fill="#ffe266"/><path d="m347.464844 61.316406h-194.171875c-16.90625 0-30.660157 13.753906-30.660157 30.660156 0 33.808594 27.507813 61.316407 61.320313 61.316407h132.851563c33.8125 0 61.320312-27.507813 61.320312-61.316407 0-16.90625-13.753906-30.660156-30.660156-30.660156zm-30.660156 71.539063h-132.851563c-22.542969 0-40.878906-18.339844-40.878906-40.878907 0-5.636718 4.585937-10.21875 10.21875-10.21875h194.171875c5.636718 0 10.21875 4.582032 10.21875 10.21875 0 22.539063-18.335938 40.878907-40.878906 40.878907zm0 0" fill="#024c67"/><path d="m327.027344 40.878906h-23.359375l-12.210938-28.492187c-3.222656-7.515625-10.609375-12.386719-18.785156-12.386719h-44.582031c-8.179688 0-15.566406 4.871094-18.789063 12.386719l-12.210937 28.492187h-23.355469c-5.644531 0-10.222656 4.574219-10.222656 10.21875v51.097656c0 5.644532 4.578125 10.21875 10.222656 10.21875h153.292969c5.644531 0 10.21875-4.574218 10.21875-10.21875v-51.097656c0-5.644531-4.574219-10.21875-10.21875-10.21875zm-102.195313-10.21875c0-5.644531 4.574219-10.222656 10.21875-10.222656h30.65625c5.644531 0 10.222657 4.578125 10.222657 10.222656 0 5.644532-4.578126 10.21875-10.222657 10.21875h-30.65625c-5.644531 0-10.21875-4.574218-10.21875-10.21875zm0 0" fill="#f5c02c"/><path d="m285.101562 51.777344c-.351562 5.433594-5.101562 9.539062-10.542968 9.539062h-50.75c-11.289063 0-20.4375 9.152344-20.4375 20.441406v20.4375c0 5.644532 4.574218 10.21875 10.21875 10.21875h-39.855469c-5.644531 0-10.222656-4.574218-10.222656-10.21875v-51.097656c0-5.644531 4.578125-10.21875 10.222656-10.21875h23.355469l12.210937-28.492187c3.222657-7.515625 10.609375-12.386719 18.789063-12.386719h39.855468c-8.175781 0-15.566406 4.871094-18.789062 12.386719l-3.449219 8.050781h-10.65625c-5.871093 0-10.582031 4.949219-10.199219 10.902344.351563 5.429687 5.105469 9.539062 10.550782 9.539062h39.503906c5.867188 0 10.582031 4.945313 10.195312 10.898438zm0 0" fill="#f48c03"/><path d="m388.777344 321.296875c5.988281 5.988281 5.988281 15.691406 0 21.679687-2.992188 2.992188-6.914063 4.488282-10.835938 4.488282-3.925781 0-7.847656-1.496094-10.839844-4.488282l-14.453124-14.453124-14.453126 14.453124c-2.992187 2.992188-6.914062 4.488282-10.839843 4.488282-3.921875 0-7.84375-1.496094-10.835938-4.488282-5.988281-5.988281-5.988281-15.691406 0-21.679687l14.449219-14.453125-14.449219-14.453125c-5.988281-5.984375-5.988281-15.691406 0-21.675781 5.984375-5.988282 15.691407-5.988282 21.675781 0l14.453126 14.449218 14.453124-14.449218c5.984376-5.988282 15.691407-5.988282 21.679688 0 5.984375 5.984375 5.984375 15.691406 0 21.675781l-14.453125 14.453125zm-14.453125 97.960937 14.453125-14.453124c5.988281-5.984376 5.988281-15.691407 0-21.675782-5.984375-5.988281-15.691406-5.988281-21.679688 0l-14.453125 14.449219-14.449219-14.449219c-5.988281-5.988281-15.695312-5.988281-21.679687 0-5.988281 5.984375-5.988281 15.691406 0 21.675782l14.453125 14.453124-14.453125 14.453126c-5.988281 5.988281-5.988281 15.691406 0 21.679687 2.992187 2.992187 6.917969 4.488281 10.839844 4.488281s7.84375-1.496094 10.835937-4.488281l14.453125-14.453125 14.453125 14.453125c2.992188 2.992187 6.917969 4.488281 10.839844 4.488281s7.847656-1.496094 10.839844-4.488281c5.984375-5.988281 5.984375-15.691406 0-21.679687zm0 0" fill="#ff895a"/><path d="m320.8125 339.476562c-1.3125 1.3125-2.496094 2.710938-3.554688 4.167969-.25-.21875-.503906-.433593-.742187-.671875-5.988281-5.984375-5.988281-15.691406 0-21.675781l14.453125-14.453125-14.453125-14.453125c-5.988281-5.988281-5.988281-15.691406 0-21.679687.238281-.238282.492187-.449219.742187-.667969 1.058594 1.457031 2.238282 2.851562 3.554688 4.167969l25.40625 25.40625c3.992188 3.992187 3.992188 10.460937 0 14.453124zm25.40625 87.007813c3.992188-3.992187 3.992188-10.460937 0-14.453125l-25.40625-25.40625c-1.3125-1.3125-2.496094-2.710938-3.554688-4.167969-.25.21875-.503906.429688-.742187.667969-5.988281 5.988281-5.988281 15.695312 0 21.679688l14.453125 14.453124-14.453125 14.453126c-5.988281 5.984374-5.988281 15.691406 0 21.679687.238281.234375.492187.449219.742187.667969 1.058594-1.457032 2.238282-2.855469 3.554688-4.167969zm0 0" fill="#ff6466"/><path d="m413.492188 179.460938-56.613282 56.609374c-2.992187 2.996094-6.914062 4.492188-10.835937 4.492188-3.925781 0-7.847657-1.496094-10.839844-4.492188l-28.90625-28.902343c-5.984375-5.988281-5.984375-15.691407 0-21.679688 5.988281-5.988281 15.691406-5.988281 21.679687 0l18.066407 18.066407 45.769531-45.773438c5.988281-5.984375 15.695312-5.984375 21.679688 0 5.988281 5.988281 5.984374 15.695312 0 21.679688zm0 0" fill="#02cc69"/><path d="m413.492188 179.460938-44.773438 44.773437c-2.992188 2.992187-6.917969 4.488281-10.839844 4.488281s-7.84375-1.496094-10.839844-4.488281l-28.902343-28.90625c-3.800781-3.800781-5.179688-9.097656-4.15625-13.996094 4.894531-1.023437 10.195312.355469 13.992187 4.15625l18.066406 18.066407 45.773438-45.773438c5.984375-5.984375 15.691406-5.984375 21.679688 0 5.984374 5.988281 5.984374 15.691406 0 21.679688zm0 0" fill="#54d680"/></svg>