<svg height="512pt" viewBox="0 -6 512 512" width="512pt" xmlns="http://www.w3.org/2000/svg"><path d="m500.757812 250.378906c0 138.28125-112.097656 250.378906-250.378906 250.378906-68.699218 0-130.925781-27.671874-176.164062-72.472656-4.726563-4.679687-5.085938-12.246094-.816406-17.351562 36.363281-43.464844 58.261718-99.449219 58.261718-160.554688 0-61.105468-21.894531-117.089844-58.261718-160.554687-4.304688-5.144531-3.851563-12.734375.917968-17.449219 45.113282-44.628906 107.101563-72.234375 175.542969-72.375 138.144531-.28125 250.898437 112.234375 250.898437 250.378906zm0 0" fill="#ffcf48"/><path d="m134.898438 397.539062h-87.078126c-6.847656-9.402343-13.054687-19.304687-18.5625-29.636718-8.976562-16.851563-28.265624-69.351563-25.503906-123.925782 2.984375-58.914062 28.960938-120.246093 44.804688-141.78125 8.039062-10.929687 16.945312-21.183593 26.617187-30.660156h54.613281c8.464844 0 15.328126 6.863282 15.328126 15.332032v300.453124c0 5.644532-4.574219 10.21875-10.21875 10.21875zm0 0" fill="#0069a3"/><path d="m463.96875 417.980469h-347.464844c-8.464844 0-15.332031-6.863281-15.332031-15.328125v-315.785156c0-8.46875 6.867187-15.332032 15.332031-15.332032h347.464844c8.464844 0 15.328125 6.863282 15.328125 15.332032v315.785156c0 8.464844-6.863281 15.328125-15.328125 15.328125zm0 0" fill="#08c"/><path d="m172.710938 403.671875v10.21875c0 8.46875-6.863282 15.332031-15.328126 15.332031h-82.207031c-12.632812-12.375-23.953125-26.074218-33.746093-40.878906h115.953124c8.464844 0 15.328126 6.863281 15.328126 15.328125zm0 0" fill="#7ed4f2"/><path d="m476.230469 429.222656h-369.945313c-8.46875 0-15.332031-6.863281-15.332031-15.332031v-10.21875c0-8.464844 6.863281-15.328125 15.332031-15.328125h45.984375l.546875.027344c37.082032 2.023437 74.242188 2.023437 111.324219 0l.546875-.027344h242.203125c2.820313 0 5.109375 2.289062 5.109375 5.109375 0 19.753906-16.015625 35.769531-35.769531 35.769531zm0 0" fill="#92dff4"/><path d="m245.78125 408.78125h-74.605469c-10.441406 0-18.90625-8.464844-18.90625-18.90625v-1.53125h112.417969v1.53125c0 10.441406-8.464844 18.90625-18.90625 18.90625zm0 0" fill="#50b0d6"/><path d="m112.179688 107.304688v255.488281c0 2.824219-2.289063 5.109375-5.109376 5.109375h-77.8125c-18.664062-35.046875-29.257812-75.042969-29.257812-117.523438 0-55.457031 18.042969-106.691406 48.558594-148.183594h58.511718c2.820313 0 5.109376 2.289063 5.109376 5.109376zm0 0" fill="#c0fbff"/><path d="m79.542969 142.585938v10.21875c0 2.820312-2.289063 5.109374-5.109375 5.109374h-56.796875c2.773437-6.972656 5.851562-13.789062 9.21875-20.441406h47.578125c2.820312 0 5.109375 2.289063 5.109375 5.113282zm-19.246094 45.988281v-10.222657c0-2.820312-2.289063-5.109374-5.109375-5.109374h-43.0625c-2.164062 6.695312-4.074219 13.511718-5.675781 20.441406h48.738281c2.820312 0 5.109375-2.289063 5.109375-5.109375zm5.109375 20.4375h-61.984375c-1.121094 6.726562-1.972656 13.542969-2.542969 20.4375h64.527344c2.820312 0 5.109375-2.285157 5.109375-5.109375v-10.21875c0-2.820313-2.289063-5.109375-5.109375-5.109375zm5.109375 86.332031v-10.21875c0-2.820312-2.289063-5.109375-5.109375-5.109375h-63.652344c.8125 6.902344 1.894532 13.722656 3.257813 20.441406h60.394531c2.820312 0 5.109375-2.289062 5.109375-5.113281zm0 35.769531v-10.21875c0-2.820312-2.289063-5.109375-5.109375-5.109375h-56.757812c1.871093 6.933594 4.019531 13.753906 6.457031 20.4375h50.300781c2.820312 0 5.109375-2.289062 5.109375-5.109375zm0 0" fill="#84deea"/><path d="m186.761719 86.867188c0 4.230468-3.429688 7.664062-7.664063 7.664062s-7.664062-3.433594-7.664062-7.664062c0-4.234376 3.429687-7.664063 7.664062-7.664063s7.664063 3.429687 7.664063 7.664063zm21.71875-7.664063c-4.234375 0-7.667969 3.429687-7.667969 7.664063 0 4.230468 3.433594 7.664062 7.667969 7.664062 4.230469 0 7.664062-3.433594 7.664062-7.664062 0-4.234376-3.433593-7.664063-7.664062-7.664063zm29.378906 0c-4.230469 0-7.664063 3.429687-7.664063 7.664063 0 4.230468 3.433594 7.664062 7.664063 7.664062 4.234375 0 7.664063-3.433594 7.664063-7.664062 0-4.234376-3.429688-7.664063-7.664063-7.664063zm0 0" fill="#024c67"/><path d="m448.640625 107.304688v255.488281c0 2.824219-2.289063 5.109375-5.113281 5.109375h-342.355469v-265.707032h342.355469c2.824218 0 5.113281 2.289063 5.113281 5.109376zm0 0" fill="#fff5f5"/><path d="m167.601562 194.703125h-22.996093c-2.820313 0-5.109375-2.289063-5.109375-5.109375v-10.21875c0-2.820312 2.289062-5.109375 5.109375-5.109375h22.996093c2.820313 0 5.109376 2.289063 5.109376 5.109375v10.21875c0 2.820312-2.289063 5.109375-5.109376 5.109375zm5.109376 30.660156v-10.21875c0-2.824219-2.289063-5.109375-5.109376-5.109375h-22.996093c-2.820313 0-5.109375 2.285156-5.109375 5.109375v10.21875c0 2.820313 2.289062 5.109375 5.109375 5.109375h22.996093c2.820313 0 5.109376-2.289062 5.109376-5.109375zm0 108.445313v-10.21875c0-2.824219-2.289063-5.113282-5.109376-5.113282h-22.996093c-2.820313 0-5.109375 2.289063-5.109375 5.113282v10.21875c0 2.820312 2.289062 5.109375 5.109375 5.109375h22.996093c2.820313 0 5.109376-2.289063 5.109376-5.109375zm0 0" fill="#ffcf48"/><path d="m167.601562 265.707031h-22.996093c-2.820313 0-5.109375-2.285156-5.109375-5.109375v-10.21875c0-2.820312 2.289062-5.109375 5.109375-5.109375h22.996093c2.820313 0 5.109376 2.289063 5.109376 5.109375v10.21875c0 2.824219-2.289063 5.109375-5.109376 5.109375zm5.109376 30.660157v-10.21875c0-2.824219-2.289063-5.109376-5.109376-5.109376h-22.996093c-2.820313 0-5.109375 2.285157-5.109375 5.109376v10.21875c0 2.820312 2.289062 5.109374 5.109375 5.109374h22.996093c2.820313 0 5.109376-2.289062 5.109376-5.109374zm0 0" fill="#ff8d7d"/><path d="m300.457031 265.707031h-102.199219c-2.820312 0-5.109374-2.285156-5.109374-5.109375v-10.21875c0-2.820312 2.289062-5.109375 5.109374-5.109375h102.199219c2.820313 0 5.109375 2.289063 5.109375 5.109375v10.21875c0 2.824219-2.289062 5.109375-5.109375 5.109375zm97.082031-5.109375v-10.21875c0-2.820312-2.285156-5.109375-5.109374-5.109375h-61.316407c-2.820312 0-5.109375 2.289063-5.109375 5.109375v10.21875c0 2.824219 2.289063 5.109375 5.109375 5.109375h61.316407c2.824218 0 5.109374-2.285156 5.109374-5.109375zm0 0" fill="#ffa47c"/><path d="m327.367188 157.914062h-182.761719c-2.820313 0-5.109375-2.289062-5.109375-5.109374v-10.21875c0-2.824219 2.289062-5.113282 5.109375-5.113282h182.761719c2.820312 0 5.109374 2.289063 5.109374 5.113282v10.21875c0 2.820312-2.289062 5.109374-5.109374 5.109374zm-113.777344 170.785157c0-5.644531-4.578125-10.222657-10.21875-10.222657-5.644532 0-10.222656 4.578126-10.222656 10.222657s4.578124 10.21875 10.222656 10.21875c5.640625 0 10.21875-4.574219 10.21875-10.21875zm33.210937 0c0-5.644531-4.574219-10.222657-10.21875-10.222657s-10.21875 4.578126-10.21875 10.222657 4.574219 10.21875 10.21875 10.21875 10.21875-4.574219 10.21875-10.21875zm30.660157 0c0-5.644531-4.574219-10.222657-10.21875-10.222657-5.644532 0-10.21875 4.578126-10.21875 10.222657s4.574218 10.21875 10.21875 10.21875c5.644531 0 10.21875-4.574219 10.21875-10.21875zm38.324218-139.105469v-10.21875c0-2.820312-2.289062-5.109375-5.109375-5.109375h-112.417969c-2.820312 0-5.109374 2.289063-5.109374 5.109375v10.21875c0 2.820312 2.289062 5.109375 5.109374 5.109375h112.417969c2.820313 0 5.109375-2.289063 5.109375-5.109375zm-10.21875 106.773438v-10.21875c0-2.824219-2.289062-5.109376-5.109375-5.109376h-102.199219c-2.820312 0-5.109374 2.285157-5.109374 5.109376v10.21875c0 2.820312 2.289062 5.109374 5.109374 5.109374h102.199219c2.820313 0 5.109375-2.289062 5.109375-5.109374zm-30.660156-71.003907v-10.21875c0-2.824219-2.289062-5.109375-5.109375-5.109375h-71.539063c-2.820312 0-5.109374 2.285156-5.109374 5.109375v10.21875c0 2.820313 2.289062 5.109375 5.109374 5.109375h71.539063c2.820313 0 5.109375-2.289062 5.109375-5.109375zm0 0" fill="#ffe59c"/><path d="m299.433594 158.402344h-27.59375c-8.464844 0-15.328125-6.863282-15.328125-15.328125v-127.746094c0-8.464844 6.863281-15.328125 15.328125-15.328125h27.59375c8.464844 0 15.328125 6.863281 15.328125 15.328125v127.746094c0 8.464843-6.863281 15.328125-15.328125 15.328125zm0 0" fill="#02cc69"/><path d="m512 15.328125v127.746094c0 8.464843-6.863281 15.328125-15.328125 15.328125h-146.824219l-19.890625 29.839844c-8.855469 13.28125-23.757812 21.257812-39.722656 21.257812-2.820313 0-5.109375-2.289062-5.109375-5.109375v-189.0625c0-8.464844 6.863281-15.328125 15.332031-15.328125h196.214844c8.464844 0 15.328125 6.863281 15.328125 15.328125zm0 0" fill="#54d680"/><path d="m489.515625 34.746094v10.21875c0 2.824218-2.285156 5.109375-5.109375 5.109375h-112.414062c-2.820313 0-5.109376-2.285157-5.109376-5.109375v-10.21875c0-2.820313 2.289063-5.109375 5.109376-5.109375h112.414062c2.824219 0 5.109375 2.289062 5.109375 5.109375zm-5.109375 30.660156h-112.414062c-2.820313 0-5.109376 2.285156-5.109376 5.109375v10.21875c0 2.820313 2.289063 5.109375 5.109376 5.109375h112.414062c2.824219 0 5.109375-2.289062 5.109375-5.109375v-10.21875c0-2.824219-2.285156-5.109375-5.109375-5.109375zm-40.878906 35.765625h-71.535156c-2.820313 0-5.109376 2.289063-5.109376 5.113281v10.21875c0 2.820313 2.289063 5.109375 5.109376 5.109375h71.535156c2.824218 0 5.113281-2.289062 5.113281-5.109375v-10.21875c0-2.824218-2.289063-5.113281-5.113281-5.113281zm0 0" fill="#c0f9cf"/><path d="m317.828125 53.09375c-10.160156 0-18.394531-8.234375-18.394531-18.394531 0-10.160157 8.234375-18.394531 18.394531-18.394531s18.394531 8.234374 18.394531 18.394531c0 10.160156-8.234375 18.394531-18.394531 18.394531zm-15.328125 27.59375v40.878906c0 8.464844 6.863281 15.328125 15.328125 15.328125s15.328125-6.863281 15.328125-15.328125v-40.878906c0-8.464844-6.863281-15.328125-15.328125-15.328125s-15.328125 6.863281-15.328125 15.328125zm0 0" fill="#c0f9cf"/><path d="m311.695312 34.699219c0-8.003907 5.125-14.796875 12.265626-17.324219 7.136718 2.527344 12.261718 9.320312 12.261718 17.324219 0 8.007812-5.125 14.796875-12.261718 17.328125-7.140626-2.53125-12.265626-9.320313-12.265626-17.328125zm12.265626 31.941406c-5.414063 2.367187-9.199219 7.761719-9.199219 14.046875v40.878906c0 6.285156 3.785156 11.679688 9.199219 14.042969 5.410156-2.363281 9.195312-7.757813 9.195312-14.042969v-40.878906c0-6.285156-3.785156-11.679688-9.195312-14.046875zm0 0" fill="#fff5f5"/></svg>