<?xml version="1.0" encoding="utf-8"?>
<!-- Generator: Adobe Illustrator 23.0.3, SVG Export Plug-In . SVG Version: 6.00 Build 0)  -->
<svg version="1.1" id="レイヤー_1" xmlns="http://www.w3.org/2000/svg" xmlns:xlink="http://www.w3.org/1999/xlink" x="0px"
	 y="0px" viewBox="0 0 800 800" style="enable-background:new 0 0 800 800;" xml:space="preserve">
<style type="text/css">
	.st0{opacity:0.4;fill:#1CACFF;}
	.st1{opacity:0.5;fill:#1CACFF;}
	.st2{opacity:0.7;fill:#1CACFF;}
	.st3{opacity:0.8;fill:#1CACFF;}
</style>
<g>
	<path class="st0" d="M487,666.5c0,48.72-43.52,91.5-92.23,91.5H128.83C80.12,758,42,715.22,42,666.5v-3.81
		c0-48.71,38.12-87.7,86.83-87.7h265.94c48.71,0,92.23,38.98,92.23,87.7V666.5z"/>
	<path class="st1" d="M495,656.63c0,48.72-38.25,90.37-86.96,90.37h-5.82c-48.71,0-90.22-41.65-90.22-90.37V390.55
		c0-48.72,41.51-86.55,90.22-86.55h5.82c48.71,0,86.96,37.83,86.96,86.55V656.63z"/>
	<path class="st2" d="M757,398.27c0,48.71-39.49,88.73-88.19,88.73H401.58c-48.71,0-89.58-40.02-89.58-88.73v-6.28
		c0-48.71,40.87-87.99,89.58-87.99h267.23c48.7,0,88.19,39.28,88.19,87.99V398.27z"/>
	<path class="st3" d="M757,398.27c0,48.71-39.49,88.73-88.19,88.73h-6.28c-48.7,0-88.53-40.02-88.53-88.73V131.04
		C574,82.33,613.83,42,662.53,42h6.28c48.7,0,88.19,40.33,88.19,89.04V398.27z"/>
</g>
</svg>
