<?xml version="1.0" encoding="utf-8"?>
<!-- Generator: Adobe Illustrator 23.0.3, SVG Export Plug-In . SVG Version: 6.00 Build 0)  -->
<svg version="1.1" id="レイヤー_1" xmlns="http://www.w3.org/2000/svg" xmlns:xlink="http://www.w3.org/1999/xlink" x="0px"
	 y="0px" viewBox="0 0 753.1 753.9" style="enable-background:new 0 0 753.1 753.9;" xml:space="preserve">
<style type="text/css">
	.st0{fill:#FFFFFF;enable-background:new    ;}
	.st1{opacity:0.4;fill:#1CACFF;enable-background:new    ;}
	.st2{opacity:0.5;fill:#1CACFF;enable-background:new    ;}
	.st3{opacity:0.7;fill:#1CACFF;enable-background:new    ;}
	.st4{opacity:0.8;fill:#1CACFF;enable-background:new    ;}
</style>
<g>
	<path class="st0" d="M659.1,0h-6.7c-51.9,0-94.3,43-94.3,94.8v184.2H381.4h-6.2h-0.7c-12.5,0-24.5,2.4-35.5,6.8
		c-34.7,13.6-59.9,46.2-59.9,85.3v1.5v6.7V559H92.5C40.6,559,0,600.5,0,652.4v4.1c0,51.9,40.6,97.5,92.5,97.5h283.3
		c19.7,0,38.6-6.6,54.4-17.5c16.7-10.9,29.8-27.1,37.2-46.2c4.3-10.6,6.6-22,6.6-33.8v-1.8v-2.3V474h178.4h6.7
		c51.9,0,93.9-42.6,93.9-94.5h0v-6.7v-278C753.1,43,711,0,659.1,0z"/>
	<g>
		<g>
			<g>
				<path class="st1" d="M474,656.5c0,51.9-46.4,97.5-98.2,97.5H92.5C40.6,753.9,0,708.4,0,656.5v-4.1C0,600.5,40.6,559,92.5,559
					h283.3c51.9,0,98.2,41.5,98.2,93.4L474,656.5L474,656.5z"/>
				<path class="st2" d="M474,654.7c0,51.9-40.7,96.3-92.6,96.3h-6.2c-51.9,0-96.1-44.4-96.1-96.3V371.3c0-51.9,44.2-92.2,96.1-92.2
					h6.2c51.9,0,92.6,40.3,92.6,92.2V654.7z"/>
			</g>
			<path class="st3" d="M753.1,379.5c0,51.9-42.1,94.5-93.9,94.5H374.5c-51.9,0-95.4-42.6-95.4-94.5v-6.7
				c0-51.9,43.5-93.7,95.4-93.7h284.6c51.9,0,93.9,41.8,93.9,93.7L753.1,379.5L753.1,379.5z"/>
		</g>
		<path class="st4" d="M753.1,379.5c0,51.9-42.1,94.5-93.9,94.5h-6.7c-51.9,0-94.3-42.6-94.3-94.5V94.8C558.1,43,600.6,0,652.4,0
			h6.7c51.9,0,93.9,43,93.9,94.8L753.1,379.5L753.1,379.5z"/>
	</g>
</g>
</svg>
